<svg width="523" height="124" viewBox="0 0 523 124" fill="none" xmlns="http://www.w3.org/2000/svg">
<path d="M31.24 7.144C33.184 9.16 33.616 12.688 34.12 15.208C35.488 22.408 35.416 29.752 33.832 36.664C32.968 40.264 31.96 44.44 29.872 47.392C27.568 50.776 23.248 51.424 19.36 51.928C16.768 52.216 14.392 51.856 12.232 50.92C7.48 48.832 6.688 44.368 4.528 39.472C3.376 36.736 2.872 34.072 2.944 31.336C3.16 23.2 11.152 20.176 17.704 19.744C19.288 19.672 20.224 19.528 21.736 19.096C22.816 18.808 23.464 18.232 23.536 17.368C23.896 16 22.384 13.984 21.088 13.336C20.008 12.76 19.072 12.688 17.848 12.688C15.976 12.688 13.672 12.4 12.16 13.624C11.008 14.56 10.432 15.28 9.352 16.216C8.92 16.576 8.416 16.936 7.912 17.224C7.192 17.584 6.184 18.088 5.392 17.512C1.72 14.92 0.568 10.816 3.448 7.36C5.392 4.912 11.8 2.752 14.896 2.608C17.992 2.392 21.016 2.824 24.184 3.256C26.92 3.688 29.296 5.056 31.24 7.144ZM23.752 33.064C24.04 31.768 23.464 30.832 22.24 30.256C21.088 29.68 19.432 29.68 18.208 29.68C17.128 29.68 15.976 29.968 14.968 30.184C14.032 30.472 13.096 30.976 12.448 31.768C11.584 32.776 11.152 34.216 11.584 35.728C12.232 37.888 14.392 39.904 16.624 39.904C18.496 39.976 20.656 38.968 21.952 37.744C23.176 36.52 23.464 34.72 23.752 33.064ZM52.5739 9.304C55.8859 13.192 60.7819 14.848 63.8059 19.24C69.4219 27.232 68.1979 37.528 63.2299 45.52C61.7899 47.824 59.9179 50.2 57.3979 51.28C54.4459 52.576 50.9899 51.784 47.8939 51.712C44.2219 51.64 38.9659 52.576 37.6699 47.968C37.3099 46.744 37.0939 44.944 36.9499 43.576C36.8779 41.632 36.7339 38.68 38.8939 37.96C40.7659 37.312 42.8539 38.536 44.7979 38.464C46.4539 38.536 47.8219 38.176 48.8299 37.456C50.2699 36.448 51.6379 35.296 52.6459 33.928C53.4379 32.92 53.9419 31.624 54.0139 30.328C54.1579 23.848 45.0139 22.336 42.0619 17.8C40.1899 14.992 40.1899 11.464 40.9819 8.368C41.5579 5.992 43.5739 2.104 46.5979 2.536C47.3179 2.608 48.0379 2.968 48.6859 3.76C50.2699 5.344 51.0619 7.576 52.5739 9.304ZM101.188 12.544C101.404 12.904 101.548 13.264 101.62 13.696C102.7 16.864 102.916 20.464 102.844 23.848C102.844 27.736 101.836 31.12 98.596 33.496C95.86 35.44 92.836 35.8 89.668 35.728C86.788 35.656 83.764 35.224 80.956 35.44C80.524 35.44 81.676 38.464 81.892 38.752C82.468 39.688 83.26 40.48 84.268 41.056C86.788 42.496 89.524 42.28 92.332 42.064C93.916 41.992 98.956 41.272 99.172 43.864C99.46 46.672 98.596 49.624 95.86 50.848C94.204 51.568 92.116 51.64 90.316 51.856C88.3 52 87.076 52.072 85.06 52C81.964 51.856 78.508 51.496 75.844 49.768C73.036 47.968 72.1 44.728 71.38 41.632C69.652 34.504 68.716 27.592 69.796 20.32C70.3 16.648 71.02 12.256 72.82 9.016C74.908 5.272 79.156 3.904 82.972 2.752C85.492 2.032 87.94 1.96 90.172 2.536C95.068 3.832 98.668 8.08 101.188 12.544ZM93.772 20.896C94.06 18.592 93.124 16.504 90.964 15.136C89.164 13.912 88.012 13.624 85.924 14.416C82.324 15.784 81.244 17.656 80.74 21.256C80.524 22.552 80.524 24.352 80.884 25.648C81.1 26.512 81.244 26.44 82.18 26.44C82.9 26.512 83.62 26.512 84.268 26.512C85.708 26.512 87.22 26.656 88.588 26.368C90.028 26.008 91.612 25 92.62 23.704C93.268 22.84 93.7 21.904 93.772 20.896ZM136.989 15.568C137.421 17.08 137.493 18.736 137.349 20.392C137.061 23.488 137.493 26.584 137.277 29.68C137.133 31.768 136.413 34.36 134.109 34.792C133.461 34.936 132.885 34.864 132.309 34.936C131.733 35.008 131.157 35.08 130.581 35.008C129.501 34.936 128.205 34.72 127.197 34.288C126.981 33.568 126.549 32.848 126.333 31.984C126.117 31.12 126.261 30.4 126.261 29.536C126.261 26.296 125.901 22.912 125.757 19.744C125.685 18.52 125.685 16.864 125.037 15.856C124.677 15.28 124.317 14.92 123.669 14.632C121.869 13.912 119.709 14.92 118.341 16.144C117.117 17.368 116.397 19.024 116.109 20.752C115.749 22.84 115.677 24.928 115.677 27.088C115.605 29.248 115.605 31.48 115.821 33.64C116.037 35.368 116.253 37.24 117.189 38.752C117.765 39.688 118.557 40.48 119.565 41.056C122.085 42.496 124.821 42.28 127.629 42.064C129.213 41.992 134.253 41.272 134.469 43.864C134.757 46.672 133.893 49.624 131.157 50.848C129.501 51.568 127.413 51.64 125.613 51.856C123.597 52 122.373 52.072 120.357 52C117.261 51.856 113.805 51.496 111.141 49.768C108.333 47.968 107.397 44.728 106.677 41.632C104.949 34.504 104.013 27.592 105.093 20.32C105.597 16.648 106.317 12.256 108.117 9.016C110.205 5.272 114.453 3.904 118.269 2.752C120.789 2.032 123.237 1.96 125.469 2.536C128.637 3.4 131.301 5.776 133.317 8.296C135.045 10.456 136.413 12.904 136.989 15.568ZM194.407 14.632C195.487 20.176 196.855 27.448 196.783 33.424C197.071 36.16 197.215 38.608 197.215 40.912C197.143 44.152 196.927 48.472 193.831 50.128C191.887 50.92 189.079 52.144 186.847 52C185.479 51.928 184.615 51.352 184.183 50.272C182.815 46.96 184.471 41.992 184.831 38.752C185.263 33.928 184.975 29.032 184.255 24.352C183.895 21.544 183.391 17.872 181.087 16C180.367 15.352 179.503 15.064 178.351 15.136C175.399 15.424 172.951 17.368 173.743 23.416C174.031 25.72 174.823 32.632 174.823 32.632C174.751 35.8 174.535 40.192 171.511 41.848C169.567 42.64 167.119 45.592 164.959 45.376C163.519 45.304 162.223 43.072 161.791 41.992C160.423 38.68 162.439 27.592 162.295 24.352C162.223 21.544 161.431 17.872 159.127 16C158.479 15.352 157.399 15.28 156.319 15.568C153.439 16.288 153.295 19.816 152.215 22.264C151.063 25.36 150.559 27.376 150.271 30.904C150.055 32.848 150.487 34.864 150.847 36.736C151.207 38.68 151.711 40.624 151.855 42.568L151.927 45.016C152.143 47.392 153.511 50.992 149.911 51.28C147.895 51.496 146.023 52.72 144.079 51.568C143.215 50.848 142.495 50.776 141.775 49.984C140.551 48.832 140.191 47.824 140.047 46.096C139.903 44.656 139.759 43.144 139.543 41.488C138.967 37.528 139.327 34.144 139.327 30.256C138.967 23.848 140.767 20.176 141.631 13.984C142.135 10.816 142.783 7.432 145.087 5.056C146.743 3.256 148.759 2.824 151.063 2.68C153.655 2.536 156.391 2.68 158.911 3.472C160.783 4.048 162.511 4.984 164.023 6.28C164.743 6.928 165.391 7.72 165.895 8.512C166.111 8.872 166.687 10.384 167.191 10.168C167.407 10.096 167.623 8.728 167.839 8.44C168.487 7.36 169.855 6.568 170.863 5.704C172.015 4.768 173.311 3.76 174.607 2.968C177.703 1.24 181.735 0.231997 185.191 1.312C190.303 2.896 193.471 9.592 194.407 14.632ZM228.612 29.392C229.98 32.344 231.852 35.08 232.644 38.248C233.22 40.624 233.148 43.072 232.212 45.376C230.628 49.264 224.724 50.632 220.836 51.352C219.18 51.568 217.74 51.784 216.444 51.928C213.636 52.36 210.324 51.28 207.876 49.84C206.292 48.976 204.924 47.608 203.7 46.24C202.548 44.8 201.396 43.288 200.172 41.92C198.732 40.552 198.948 38.464 199.092 36.664C199.236 34.288 200.172 33.352 201.324 31.336C202.476 29.32 204.06 27.52 205.428 25.72C206.796 24.208 209.676 23.344 211.476 22.624C211.548 22.624 211.548 22.624 211.548 22.624C211.692 21.112 212.196 19.528 211.476 18.16C211.044 17.44 210.18 16.72 209.46 16.288C208.02 15.424 207.084 14.776 206.292 13.192C205.428 11.392 206.364 9.088 207.156 7.432C208.236 5.272 209.028 3.976 211.188 2.896C212.484 2.248 217.668 2.032 217.74 5.344C217.74 6.352 217.38 7.432 217.38 8.44C217.38 9.088 217.236 9.736 217.524 10.24C218.1 11.176 219.54 11.248 220.404 11.464C221.844 11.752 224.868 12.472 225.444 13.984C225.732 14.776 225.3 16.216 225.084 16.936C224.724 18.088 223.716 18.952 223.212 20.032C222.78 21.112 222.492 21.976 222.492 23.128C224.148 23.92 225.66 25.072 226.74 26.224C227.532 27.088 228.108 28.384 228.612 29.392ZM221.988 38.68C222.852 36.592 221.988 34.216 220.692 32.632C220.404 32.272 220.116 31.84 219.828 31.408C218.676 29.608 216.876 28.96 214.644 29.464C212.988 29.824 212.484 32.416 211.98 33.784C211.692 35.152 210.828 36.736 211.26 38.104C211.764 39.328 213.204 39.76 214.284 40.264C215.076 40.696 216.444 40.768 217.308 40.84C219.036 40.84 221.268 40.48 221.988 38.68ZM250.433 9.304C253.745 13.192 258.641 14.848 261.665 19.24C267.281 27.232 266.057 37.528 261.089 45.52C259.649 47.824 257.777 50.2 255.257 51.28C252.305 52.576 248.849 51.784 245.753 51.712C242.081 51.64 236.825 52.576 235.529 47.968C235.169 46.744 234.953 44.944 234.809 43.576C234.737 41.632 234.593 38.68 236.753 37.96C238.625 37.312 240.713 38.536 242.657 38.464C244.313 38.536 245.681 38.176 246.689 37.456C248.129 36.448 249.497 35.296 250.505 33.928C251.297 32.92 251.801 31.624 251.873 30.328C252.017 23.848 242.873 22.336 239.921 17.8C238.049 14.992 238.049 11.464 238.841 8.368C239.417 5.992 241.433 2.104 244.457 2.536C245.177 2.608 245.897 2.968 246.545 3.76C248.129 5.344 248.921 7.576 250.433 9.304ZM37.288 97.088C38.224 98.6 38.872 100.256 39.16 101.984C39.592 104.36 39.736 107.024 38.8 109.256C37.936 111.416 36.64 113.288 35.128 114.944C33.472 116.816 31.528 118.472 29.584 119.984C27.64 121.496 25.336 121.352 23.032 121.784C18.928 122.36 14.536 122.072 10.864 119.912C8.632 118.688 7.192 116.744 5.536 114.944C3.952 113.072 2.152 111.272 1.864 108.68C1.576 106.016 3.016 103.496 4.456 101.192C5.68 99.248 6.976 97.304 8.632 95.648C10.288 94.064 12.376 93.488 14.464 92.696C16.408 91.976 17.632 91.544 19.504 90.176C21.088 88.664 23.248 87.944 23.896 85.568C24.328 84.272 23.464 82.616 22.456 81.68C21.52 80.744 20.08 80.672 18.856 80.528C17.272 80.384 15.616 80.096 13.96 79.736C13.096 79.304 11.872 79.088 11.368 78.152C10.792 76.928 11.296 75.416 12.304 74.696C13.96 73.328 16.696 72.896 18.64 72.752C21.016 72.536 23.608 73.256 25.912 73.4C30.736 73.688 35.344 75.776 34.696 81.32C34.48 83.912 33.976 86.504 32.608 88.664C32.248 89.24 30.736 90.464 31.024 91.184C31.168 91.544 32.896 92.264 33.328 92.696C34.768 93.992 36.208 95.432 37.288 97.088ZM27.712 107.24C28.432 104.216 26.128 101.264 23.032 100.976C22.312 100.976 21.592 100.904 20.872 100.904C17.92 100.976 15.4 102.488 14.968 103.856C14.608 105.224 13.744 107.816 14.176 109.256C14.68 110.408 16.12 110.84 17.2 111.344C17.992 111.848 21.016 111.704 21.952 111.776C23.248 111.92 25.048 110.696 25.912 109.904C26.848 109.112 27.424 108.248 27.712 107.24ZM56.9333 79.304C60.2453 83.192 65.1413 84.848 68.1653 89.24C73.7813 97.232 72.5573 107.528 67.5893 115.52C66.1493 117.824 64.2773 120.2 61.7573 121.28C58.8053 122.576 55.3493 121.784 52.2533 121.712C48.5813 121.64 43.3253 122.576 42.0293 117.968C41.6693 116.744 41.4533 114.944 41.3093 113.576C41.2373 111.632 41.0933 108.68 43.2533 107.96C45.1253 107.312 47.2133 108.536 49.1573 108.464C50.8133 108.536 52.1813 108.176 53.1893 107.456C54.6293 106.448 55.9973 105.296 57.0053 103.928C57.7973 102.92 58.3013 101.624 58.3733 100.328C58.5173 93.848 49.3733 92.336 46.4213 87.8C44.5493 84.992 44.5493 81.464 45.3413 78.368C45.9173 75.992 47.9333 72.104 50.9573 72.536C51.6773 72.608 52.3973 72.968 53.0453 73.76C54.6293 75.344 55.4213 77.576 56.9333 79.304ZM103.099 77.144C105.043 79.16 105.475 82.688 105.979 85.208C107.347 92.408 107.275 99.752 105.691 106.664C104.827 110.264 103.819 114.44 101.731 117.392C99.4274 120.776 95.1074 121.424 91.2194 121.928C88.6274 122.216 86.2514 121.856 84.0914 120.92C79.3394 118.832 78.5474 114.368 76.3874 109.472C75.2354 106.736 74.7314 104.072 74.8034 101.336C75.0194 93.2 83.0114 90.176 89.5634 89.744C91.1474 89.672 92.0834 89.528 93.5954 89.096C94.6754 88.808 95.3234 88.232 95.3954 87.368C95.7554 86 94.2434 83.984 92.9474 83.336C91.8674 82.76 90.9314 82.688 89.7074 82.688C87.8354 82.688 85.5314 82.4 84.0194 83.624C82.8674 84.56 82.2914 85.28 81.2114 86.216C80.7794 86.576 80.2754 86.936 79.7714 87.224C79.0514 87.584 78.0434 88.088 77.2514 87.512C73.5794 84.92 72.4274 80.816 75.3074 77.36C77.2514 74.912 83.6594 72.752 86.7554 72.608C89.8514 72.392 92.8754 72.824 96.0434 73.256C98.7794 73.688 101.155 75.056 103.099 77.144ZM95.6114 103.064C95.8994 101.768 95.3234 100.832 94.0994 100.256C92.9474 99.68 91.2914 99.68 90.0674 99.68C88.9874 99.68 87.8354 99.968 86.8274 100.184C85.8914 100.472 84.9554 100.976 84.3074 101.768C83.4434 102.776 83.0114 104.216 83.4434 105.728C84.0914 107.888 86.2514 109.904 88.4834 109.904C90.3554 109.976 92.5154 108.968 93.8114 107.744C95.0354 106.52 95.3234 104.72 95.6114 103.064ZM163.961 84.632C165.041 90.176 166.409 97.448 166.337 103.424C166.625 106.16 166.769 108.608 166.769 110.912C166.697 114.152 166.481 118.472 163.385 120.128C161.441 120.92 158.633 122.144 156.401 122C155.033 121.928 154.169 121.352 153.737 120.272C152.369 116.96 154.025 111.992 154.385 108.752C154.817 103.928 154.529 99.032 153.809 94.352C153.449 91.544 152.945 87.872 150.641 86C149.921 85.352 149.057 85.064 147.905 85.136C144.953 85.424 142.505 87.368 143.297 93.416C143.585 95.72 144.377 102.632 144.377 102.632C144.305 105.8 144.089 110.192 141.065 111.848C139.121 112.64 136.673 115.592 134.513 115.376C133.073 115.304 131.777 113.072 131.345 111.992C129.977 108.68 131.993 97.592 131.849 94.352C131.777 91.544 130.985 87.872 128.681 86C128.033 85.352 126.953 85.28 125.873 85.568C122.993 86.288 122.849 89.816 121.769 92.264C120.617 95.36 120.113 97.376 119.825 100.904C119.609 102.848 120.041 104.864 120.401 106.736C120.761 108.68 121.265 110.624 121.409 112.568L121.481 115.016C121.697 117.392 123.065 120.992 119.465 121.28C117.449 121.496 115.577 122.72 113.633 121.568C112.769 120.848 112.049 120.776 111.329 119.984C110.105 118.832 109.745 117.824 109.601 116.096C109.457 114.656 109.313 113.144 109.097 111.488C108.521 107.528 108.881 104.144 108.881 100.256C108.521 93.848 110.321 90.176 111.185 83.984C111.689 80.816 112.337 77.432 114.641 75.056C116.297 73.256 118.313 72.824 120.617 72.68C123.209 72.536 125.945 72.68 128.465 73.472C130.337 74.048 132.065 74.984 133.577 76.28C134.297 76.928 134.945 77.72 135.449 78.512C135.665 78.872 136.241 80.384 136.745 80.168C136.961 80.096 137.177 78.728 137.393 78.44C138.041 77.36 139.409 76.568 140.417 75.704C141.569 74.768 142.865 73.76 144.161 72.968C147.257 71.24 151.289 70.232 154.745 71.312C159.857 72.896 163.025 79.592 163.961 84.632ZM201.479 97.88C201.911 98.744 202.415 99.536 202.703 100.472C203.711 103.424 203.279 107.384 201.983 110.408C199.967 115.232 196.871 118.832 192.119 120.92C189.959 121.856 187.583 122.216 184.919 121.928C181.031 121.424 176.639 120.776 174.191 117.464C172.103 114.512 170.879 110.336 169.943 106.808C168.143 99.752 168.287 92.768 169.223 85.424C169.655 82.256 171.095 75.056 175.919 72.104C178.367 70.592 182.111 70.592 184.343 71.384C185.999 71.888 187.511 72.824 188.807 74.12C189.455 74.768 190.031 75.488 190.463 76.28C190.607 76.568 191.183 78.08 191.615 77.864C191.831 77.792 192.551 76.496 192.767 76.208C193.343 75.128 193.919 74.336 194.783 73.544C196.007 72.464 197.735 70.592 199.319 70.592C202.199 70.736 203.135 73.76 203.279 76.28C203.351 79.304 202.415 80.456 199.895 81.176C197.447 81.824 197.735 83.408 197.735 85.64C197.663 86.072 197.591 86.504 197.375 86.792C196.583 87.872 194.423 87.728 193.271 87.728C191.759 87.728 190.319 87.512 188.879 87.152C188.303 87.008 187.799 86.864 187.439 86.432C186.719 85.568 186.935 85.424 186.791 84.2C186.575 83.048 185.927 82.04 185.063 81.464C183.119 80.24 181.103 81.104 180.167 82.976C179.015 85.136 179.087 87.584 179.735 89.816C179.807 90.032 179.879 90.32 180.023 90.464C180.815 91.904 183.911 91.976 185.351 92.048C187.367 92.192 189.383 92.192 191.471 92.408C195.575 92.768 199.463 93.92 201.479 97.88ZM191.615 109.616C193.703 107.744 194.279 104.936 192.191 103.064C190.463 101.48 189.383 101.48 187.151 101.48C186.071 101.48 185.063 101.552 183.983 101.48C183.191 101.48 182.255 101.264 181.535 101.624C180.311 102.2 179.735 103.136 180.023 104.432C180.383 106.16 180.743 107.888 182.039 109.04C183.119 110.048 184.415 110.624 185.855 110.984C188.663 111.632 189.167 111.704 191.615 109.616ZM224.507 72.824C228.035 73.688 232.499 77.216 234.515 80.312C238.115 85.856 236.819 95.288 235.811 101.768C235.307 104.36 234.875 106.664 234.371 108.752C233.507 112.712 231.059 116.888 228.035 119.624C224.723 123.08 220.259 121.856 216.011 121.712C212.339 121.712 207.083 122.648 205.787 117.968C205.427 116.816 205.211 115.016 205.067 113.576C204.995 111.632 204.851 108.68 207.011 107.96C208.883 107.384 210.971 108.536 212.915 108.536C214.571 108.608 215.939 108.248 216.947 107.456C218.747 106.16 221.051 104.144 222.203 101.696C224.435 97.304 226.451 87.656 221.195 84.848C219.035 83.984 215.867 83.408 213.563 83.696C210.467 84.2 208.163 87.656 206.075 83.264C203.123 77.648 211.187 71.888 216.155 72.752L217.883 72.608C220.187 72.896 222.275 72.32 224.507 72.824ZM275.253 104.216C275.973 106.736 275.901 107.6 275.901 110.192C275.901 113.936 276.909 117.536 273.597 120.272C272.013 121.568 270.501 121.568 268.557 121.568C266.541 121.568 264.093 121.64 263.301 119.408C262.725 117.608 263.085 115.304 263.085 113.432C263.085 111.776 263.085 112.136 263.229 110.408C263.517 107.168 263.661 105.584 261.645 102.776C260.133 100.616 255.021 101.912 253.869 104.216C252.789 106.376 252.933 109.04 253.077 111.416C253.149 113.864 253.365 114.152 253.293 116.6C253.293 118.328 252.285 121.424 250.413 121.928C248.685 122.36 246.165 121.64 244.437 121.352C242.349 121.064 239.541 121.424 238.893 118.832C238.461 116.888 238.749 114.296 238.749 112.28C238.749 109.112 239.901 108.104 239.829 104.936C239.757 101.408 239.757 97.952 240.045 94.424C240.188 92.696 240.477 91.04 240.549 89.384C240.621 87.656 240.549 86 240.909 84.272C241.341 81.824 242.205 79.448 244.077 77.792C246.597 75.632 249.981 74.768 253.077 73.976C257.397 72.896 262.005 72.392 266.253 73.328C270.789 74.264 272.085 77.648 270.789 81.824C270.501 82.76 269.421 83.048 268.557 83.12C267.981 83.192 267.405 83.264 266.757 83.264C265.245 83.12 264.021 82.328 262.581 82.256C260.565 82.256 258.549 82.976 256.605 83.408C254.661 83.912 253.005 84.92 251.853 86.648C251.349 87.44 250.989 88.376 251.061 89.312C251.061 89.6 251.205 89.96 251.349 90.176C251.565 90.464 251.925 90.536 252.285 90.68C253.725 91.184 255.165 91.4 256.677 91.544C258.621 91.688 260.637 91.616 262.797 91.832C266.901 92.192 270.717 92.984 272.733 96.944C273.597 98.528 274.172 99.968 274.461 101.768C274.605 102.632 274.965 103.352 275.253 104.216ZM312.905 85.424C313.985 90.752 315.353 97.808 315.281 103.568C315.641 106.16 315.785 108.608 315.713 110.768C315.641 113.936 315.425 118.112 312.329 119.696C310.385 120.488 307.577 121.712 305.417 121.568C303.977 121.496 303.113 120.92 302.681 119.912C301.313 116.672 302.969 111.848 303.329 108.68C303.761 104.072 303.473 99.32 302.753 94.784C302.321 92.12 301.889 88.52 299.585 86.72C298.937 86.072 298.001 85.784 296.849 85.928C293.897 86.144 292.385 89.744 291.161 92.048C289.793 94.928 289.001 98.096 288.857 101.48C288.713 103.424 289.145 105.296 289.577 107.096C290.009 108.968 290.585 110.84 290.729 112.712L290.945 115.088C291.161 117.32 292.673 120.776 289.073 121.208C287.057 121.424 285.185 122.648 283.241 121.64C282.305 120.992 281.657 120.92 280.865 120.128C279.641 119.12 279.281 118.184 278.993 116.456C278.849 115.088 278.633 113.648 278.417 111.992C277.769 108.176 277.985 104.864 277.913 101.12C277.337 95 279.857 89.312 281.081 83.408C281.873 79.376 283.529 75.344 287.633 73.76C288.281 73.616 288.785 73.544 289.073 73.544C290.873 72.896 293.033 73.112 294.905 72.896C298.865 72.464 304.049 71.528 307.073 74.84C309.881 77.648 312.185 81.392 312.905 85.424ZM350.257 95C351.481 96.008 351.841 97.016 352.129 98.744C352.273 100.04 352.489 101.552 352.705 103.136L352.057 111.056C351.337 115.088 349.681 119.12 345.505 120.704C344.929 120.848 344.425 120.92 344.065 120.92C342.265 121.568 340.105 121.352 338.305 121.568C334.345 122 329.161 122.936 326.065 119.624C323.329 116.816 321.025 113 320.233 109.04C319.225 103.712 317.857 96.656 317.929 90.896C317.569 88.232 317.425 85.856 317.497 83.624C317.569 80.528 317.785 76.352 320.809 74.696C322.753 73.976 325.633 72.752 327.793 72.896C329.161 72.968 330.097 73.544 330.529 74.552C331.897 77.792 330.169 82.544 329.809 85.784C329.377 90.392 329.737 95.144 330.385 99.68C330.817 102.344 331.321 105.944 333.553 107.744C334.273 108.392 335.209 108.608 336.361 108.536C339.241 108.32 340.393 106.016 340.969 103.424C341.041 102.848 341.041 100.688 340.969 100.112C340.753 97.808 339.241 94.352 342.841 93.992C344.857 93.704 345.937 92.48 347.881 93.56C348.817 94.208 349.465 94.28 350.257 95ZM412.729 87.872C412.945 89.312 413.017 90.824 413.017 92.264C413.161 97.664 412.657 102.992 412.153 108.32C411.937 111.056 411.649 113.792 410.785 116.384C410.353 117.824 409.633 119.192 408.481 120.056C407.617 120.704 406.609 121.064 405.601 121.28C404.089 121.64 402.577 121.784 400.993 121.784C400.129 121.784 399.193 121.64 398.473 121.208C397.249 120.272 397.105 118.544 397.249 117.032C397.609 114.656 398.545 112.496 399.265 110.192C401.065 104.576 401.569 98.6 401.209 92.768C401.137 91.4 400.993 90.032 400.417 88.808C399.841 87.584 398.761 86.504 397.393 86.288C394.081 85.712 393.289 90.104 393.145 92.408C393.073 92.912 393.073 93.488 393.073 93.992C393.001 94.928 392.929 95.864 392.857 96.8C392.353 102.128 389.761 106.952 388.321 111.992C387.241 115.952 385.225 120.272 380.977 121.424C380.329 121.568 379.825 121.64 379.465 121.568C377.593 122.072 375.577 121.64 373.705 121.712C370.753 121.784 367.945 122.576 365.209 121.496C364.345 121.136 363.481 120.56 362.617 119.696C361.321 118.256 360.097 116.6 359.017 114.728C356.641 110.48 356.425 106.664 355.489 101.84C354.625 96.872 354.121 91.328 354.697 86.432C355.201 82.112 356.713 79.232 359.881 76.496C361.465 75.128 363.121 73.76 365.065 73.04C367.153 72.32 369.241 72.608 371.329 72.68C372.625 72.752 373.993 72.896 375.217 73.328C378.169 74.408 381.265 76.784 383.425 79.016C383.569 79.16 383.713 79.304 383.929 79.304C384.217 79.304 384.433 79.088 384.577 78.872C388.465 74.192 394.873 72.32 400.921 72.752C403.081 72.896 405.241 73.4 406.969 74.624C408.337 75.632 409.273 77 410.065 78.368C411.649 81.32 412.369 84.56 412.729 87.872ZM380.689 97.52C381.409 94.136 381.193 90.392 380.257 87.008C380.113 86.36 379.825 86 379.537 85.856C378.457 85.424 377.233 84.056 376.009 83.768C375.145 83.48 373.705 83.768 372.697 83.984C371.689 84.2 370.393 84.56 369.601 85.208C365.641 88.376 366.577 97.16 367.297 101.624C367.873 105.44 369.457 108.392 372.913 107.888C377.161 106.808 379.897 101.696 380.689 97.52ZM440.585 92.912C444.833 94.568 445.769 99.608 445.913 103.64C445.913 105.44 445.553 107.24 445.121 108.824C444.329 111.128 442.025 112.712 440.585 114.512C439.001 116.312 437.345 117.752 435.689 118.904C434.033 120.056 432.017 120.848 429.641 121.28C427.913 121.568 425.033 122.144 423.017 122C420.929 121.856 418.481 121.424 418.481 118.832C418.553 116.888 418.409 113.864 420.641 112.928C422.153 112.352 423.881 112.208 425.465 111.992C425.465 111.92 425.537 111.848 425.609 111.776C426.905 111.92 428.705 110.696 429.569 109.904C433.241 106.952 431.153 101.408 426.689 100.976C425.249 100.832 423.665 101.264 422.657 99.896C422.153 99.248 421.793 98.456 421.577 97.664C420.785 95.36 421.145 92.048 423.017 90.248C423.809 89.456 424.745 88.952 425.609 88.304C428.057 86.432 428.417 83.912 426.113 81.68C425.177 80.744 423.737 80.672 422.513 80.528C420.929 80.384 419.273 80.096 417.617 79.664C416.753 79.304 415.529 79.088 415.025 78.08C414.449 76.928 414.953 75.416 415.961 74.696C417.617 73.328 420.353 72.896 422.297 72.752C424.673 72.536 427.265 73.256 429.569 73.328C434.393 73.688 439.001 75.776 438.353 81.32C438.137 83.912 437.633 86.432 436.265 88.664C435.761 89.6 434.537 90.32 434.681 91.472C436.553 91.4 438.857 92.192 440.585 92.912ZM482.78 85.424C483.86 90.752 485.228 97.808 485.156 103.568C485.516 106.16 485.66 108.608 485.588 110.768C485.516 113.936 485.3 118.112 482.204 119.696C480.26 120.488 477.452 121.712 475.292 121.568C473.852 121.496 472.988 120.92 472.556 119.912C471.188 116.672 472.844 111.848 473.204 108.68C473.636 104.072 473.348 99.32 472.628 94.784C472.196 92.12 471.764 88.52 469.46 86.72C468.812 86.072 467.876 85.784 466.724 85.928C463.772 86.144 462.26 89.744 461.036 92.048C459.668 94.928 458.876 98.096 458.732 101.48C458.588 103.424 459.02 105.296 459.452 107.096C459.884 108.968 460.46 110.84 460.604 112.712L460.82 115.088C461.036 117.32 462.548 120.776 458.948 121.208C456.932 121.424 455.06 122.648 453.116 121.64C452.18 120.992 451.532 120.92 450.74 120.128C449.516 119.12 449.156 118.184 448.868 116.456C448.724 115.088 448.508 113.648 448.292 111.992C447.644 108.176 447.86 104.864 447.788 101.12C447.212 95 449.732 89.312 450.956 83.408C451.748 79.376 453.404 75.344 457.508 73.76C458.156 73.616 458.66 73.544 458.948 73.544C460.748 72.896 462.908 73.112 464.78 72.896C468.74 72.464 473.924 71.528 476.948 74.84C479.756 77.648 482.06 81.392 482.78 85.424ZM520.132 95C521.356 96.008 521.716 97.016 522.004 98.744C522.148 100.04 522.364 101.552 522.58 103.136L521.932 111.056C521.212 115.088 519.556 119.12 515.38 120.704C514.804 120.848 514.3 120.92 513.94 120.92C512.14 121.568 509.98 121.352 508.18 121.568C504.22 122 499.036 122.936 495.94 119.624C493.204 116.816 490.9 113 490.108 109.04C489.1 103.712 487.732 96.656 487.804 90.896C487.444 88.232 487.3 85.856 487.372 83.624C487.444 80.528 487.66 76.352 490.684 74.696C492.628 73.976 495.508 72.752 497.668 72.896C499.036 72.968 499.972 73.544 500.404 74.552C501.772 77.792 500.044 82.544 499.684 85.784C499.252 90.392 499.612 95.144 500.26 99.68C500.692 102.344 501.196 105.944 503.428 107.744C504.148 108.392 505.084 108.608 506.236 108.536C509.116 108.32 510.268 106.016 510.844 103.424C510.916 102.848 510.916 100.688 510.844 100.112C510.628 97.808 509.116 94.352 512.716 93.992C514.732 93.704 515.812 92.48 517.756 93.56C518.692 94.208 519.34 94.28 520.132 95Z" fill="#090B0F"/>
</svg>
