<svg width="432" height="778" viewBox="0 0 432 778" fill="none" xmlns="http://www.w3.org/2000/svg">
<g opacity="0.01">
<path d="M297.587 225.77C348.146 191.728 297.587 68.1696 297.587 68.1696L432 147.6V305.2L163.173 465.322V305.2C163.173 305.2 223.57 275.605 297.587 225.77Z" fill="white"/>
<path d="M297.587 538.448C348.146 504.406 297.587 380.848 297.587 380.848L432 460.278V617.878L163.173 778V617.878C163.173 617.878 223.57 588.283 297.587 538.448Z" fill="white"/>
<path d="M-109.353 307.722L26.2933 390.934V711.178L-109.353 627.965V307.722Z" fill="white"/>
<path d="M161.94 -10L300.208 69.7593L-108.123 311.833L-245 228.291L161.94 -10Z" fill="white"/>
</g>
</svg>
