<svg width="206" height="328" viewBox="0 0 206 328" fill="none" xmlns="http://www.w3.org/2000/svg">
<g opacity="0.01">
<path d="M249.253 108.31C272.479 92.672 249.253 35.9104 249.253 35.9104L311 72.4V144.8L187.506 218.358V144.8C187.506 144.8 215.252 131.204 249.253 108.31Z" fill="white"/>
<path d="M249.253 251.952C272.479 236.314 249.253 179.552 249.253 179.552L311 216.042V288.442L187.506 362V288.442C187.506 288.442 215.252 274.846 249.253 251.952Z" fill="white"/>
<path d="M62.3133 145.958L124.627 184.186V331.302L62.3133 293.075V145.958Z" fill="white"/>
<path d="M186.94 0L250.457 36.6407L62.8785 147.847L0 109.469L186.94 0Z" fill="white"/>
</g>
</svg>
