<svg width="198" height="323" viewBox="0 0 198 323" fill="none" xmlns="http://www.w3.org/2000/svg">
<g opacity="0.01">
<path d="M136.253 69.3104C159.479 53.672 136.253 -3.0896 136.253 -3.0896L198 33.4V105.8L74.5064 179.358V105.8C74.5064 105.8 102.252 92.2043 136.253 69.3104Z" fill="white"/>
<path d="M136.253 212.952C159.479 197.314 136.253 140.552 136.253 140.552L198 177.042V249.442L74.5064 323V249.442C74.5064 249.442 102.252 235.846 136.253 212.952Z" fill="white"/>
<path d="M-50.6867 106.958L11.6266 145.186V292.302L-50.6867 254.075V106.958Z" fill="white"/>
<path d="M73.9399 -39L137.457 -2.35933L-50.1215 108.847L-113 70.4688L73.9399 -39Z" fill="white"/>
</g>
</svg>
