<svg width="244" height="444" viewBox="0 0 244 444" fill="none" xmlns="http://www.w3.org/2000/svg">
<g opacity="0.01">
<path d="M168.157 132.845C196.685 113.664 168.157 44.0448 168.157 44.0448L244 88.8V177.6L92.3133 267.821V177.6C92.3133 177.6 126.393 160.925 168.157 132.845Z" fill="white"/>
<path d="M168.157 309.024C196.685 289.843 168.157 220.224 168.157 220.224L244 264.979V353.779L92.3133 444V353.779C92.3133 353.779 126.393 337.104 168.157 309.024Z" fill="white"/>
<path d="M-61.4608 179.021L15.0784 225.907V406.349L-61.4608 359.462V179.021Z" fill="white"/>
<path d="M91.6175 0L169.636 44.9405L-60.7666 181.337L-138 134.266L91.6175 0Z" fill="white"/>
</g>
</svg>
