<svg width="243" height="444" viewBox="0 0 243 444" fill="none" xmlns="http://www.w3.org/2000/svg">
<g opacity="0.01">
<path d="M306.157 132.845C334.685 113.664 306.157 44.0448 306.157 44.0448L382 88.8V177.6L230.313 267.821V177.6C230.313 177.6 264.393 160.925 306.157 132.845Z" fill="white"/>
<path d="M306.157 309.024C334.685 289.843 306.157 220.224 306.157 220.224L382 264.979V353.779L230.313 444V353.779C230.313 353.779 264.393 337.104 306.157 309.024Z" fill="white"/>
<path d="M76.5392 179.021L153.078 225.907V406.349L76.5392 359.462V179.021Z" fill="white"/>
<path d="M229.618 0L307.636 44.9405L77.2334 181.337L0 134.266L229.618 0Z" fill="white"/>
</g>
</svg>
