<svg width="604" height="1071" viewBox="0 0 604 1071" fill="none" xmlns="http://www.w3.org/2000/svg">
<g opacity="0.01">
<path d="M413.2 287.506C484.969 239.208 413.2 63.9056 413.2 63.9056L604 176.6V400.2L222.401 627.378V400.2C222.401 400.2 308.135 358.211 413.2 287.506Z" fill="white"/>
<path d="M413.2 731.128C484.969 682.83 413.2 507.528 413.2 507.528L604 620.222V843.822L222.401 1071V843.822C222.401 843.822 308.135 801.833 413.2 731.128Z" fill="white"/>
<path d="M-164.45 403.778L28.1003 521.838V976.194L-164.45 858.133V403.778Z" fill="white"/>
<path d="M220.65 -47L416.922 66.161L-162.703 409.611L-357 291.083L220.65 -47Z" fill="white"/>
</g>
</svg>
