<svg width="437" height="778" viewBox="0 0 437 778" fill="none" xmlns="http://www.w3.org/2000/svg">
<g opacity="0.01">
<path d="M542.587 225.77C593.146 191.728 542.587 68.1696 542.587 68.1696L677 147.6V305.2L408.173 465.322V305.2C408.173 305.2 468.57 275.605 542.587 225.77Z" fill="white"/>
<path d="M542.587 538.448C593.146 504.406 542.587 380.848 542.587 380.848L677 460.278V617.878L408.173 778V617.878C408.173 617.878 468.57 588.283 542.587 538.448Z" fill="white"/>
<path d="M135.647 307.722L271.293 390.934V711.178L135.647 627.965V307.722Z" fill="white"/>
<path d="M406.94 -10L545.208 69.7593L136.877 311.833L0 228.291L406.94 -10Z" fill="white"/>
</g>
</svg>
